# xmcd CD database file
#
# Track frame offsets:
#	150
#	14572
#	28250
#	45217
#	60646
#	72194
#	88389
#	99182
#	114164
#	128460
#	138035
#	151569
#	164793
#	176971
#
# Disc length: 2614 seconds
#
# Revision: 0
# Processed by: cddbd v1.5.2PL0 Copyright (c) Steve Scherf et al.
# Submitted via: CDex 1.51
#
DISCID=ae0a340e
DTITLE=Sentimental Journey - Disc 3
DYEAR=2007
DGENRE=Jazz
TTITLE0=Somebody Is Knocking At Your Door
TTITLE1=Opus One
TTITLE2=I'm Getting Sentimental Over You
TTITLE3=Wade In De Water
TTITLE4=Ziguener
TTITLE5=Sophisticated Lady
TTITLE6=School Bus
TTITLE7=Bring Back My Bonny To Me
TTITLE8=Hand MeDown My Walkin' Cane
TTITLE9=Peanut Vendor
TTITLE10=Come Back To Sorrento
TTITLE11=Pennsylvania 6-5000
TTITLE12=Swinging At The Ritz
TTITLE13=Moonlight Serenade
EXTD=YEAR: 2007
EXTT0=
EXTT1=
EXTT2=
EXTT3=
EXTT4=
EXTT5=
EXTT6=
EXTT7=
EXTT8=
EXTT9=
EXTT10=
EXTT11=
EXTT12=
EXTT13=
PLAYORDER=
